<svg width="12" height="14" viewBox="0 0 12 14" fill="none" xmlns="http://www.w3.org/2000/svg">
<path d="M5.65372 0.333984C2.93851 0.333984 0.774346 2.60339 0.903173 5.31554C0.964929 6.61568 1.56325 7.8267 2.50445 8.72576C3.1588 9.35082 3.87838 10.0802 4.33322 10.6673C5.26291 11.8674 5.99988 13.6673 5.99988 13.6673C5.99988 13.6673 6.73685 11.8674 7.66655 10.6673C8.12138 10.0802 8.84096 9.35082 9.49532 8.72576C10.4365 7.8267 11.0348 6.61568 11.0966 5.31554C11.2254 2.60339 9.06125 0.333984 6.34604 0.333984H5.65372ZM5.99988 7.33398C4.89531 7.33398 3.99988 6.43855 3.99988 5.33398C3.99988 4.22942 4.89531 3.33398 5.99988 3.33398C7.10445 3.33398 7.99988 4.22942 7.99988 5.33398C7.99988 6.43855 7.10445 7.33398 5.99988 7.33398Z" fill="#A2A7AA"/>
</svg>
