<svg width="20" height="20" viewBox="0 0 20 20" fill="none" xmlns="http://www.w3.org/2000/svg">
<path d="M7.18874 10.5985L8.11669 10.9712C8.26419 10.6039 8.18124 10.1843 7.90512 9.90077L7.18874 10.5985ZM10.4929 7.23675L9.79013 7.94814C10.078 8.23253 10.5089 8.3154 10.8817 8.15808L10.4929 7.23675ZM4.55522 1.37071L5.25802 0.659321C5.09268 0.495978 4.87561 0.395328 4.64411 0.374667L4.55522 1.37071ZM1.07996 1.06055L1.16885 0.0645059C0.875861 0.038357 0.586219 0.142532 0.377005 0.349308C0.167791 0.556084 0.0602285 0.844486 0.0829416 1.13776L1.07996 1.06055ZM1.36429 4.73195L0.367277 4.80916C0.404535 5.29024 0.780003 5.67611 1.25988 5.72648L1.36429 4.73195ZM3.52776 4.95907L4.52776 4.95907C4.52776 4.4472 4.14123 4.01798 3.63216 3.96454L3.52776 4.95907ZM3.52776 6.89541H2.52776C2.52776 7.40776 2.91499 7.83723 3.4246 7.89008L3.52776 6.89541ZM5.50994 7.10098L6.50835 7.04472C6.48073 6.55457 6.1014 6.15696 5.61309 6.10632L5.50994 7.10098ZM5.61603 8.98369L4.61762 9.03995C4.63119 9.28079 4.73135 9.5086 4.89965 9.6814L5.61603 8.98369ZM7.74998 12.8785C7.74998 12.2025 7.88046 11.5593 8.11669 10.9712L6.26079 10.2258C5.93098 11.0469 5.74998 11.9428 5.74998 12.8785H7.74998ZM12.8708 17.9993C10.0426 17.9993 7.74998 15.7066 7.74998 12.8785H5.74998C5.74998 16.8112 8.93807 19.9993 12.8708 19.9993V17.9993ZM17.9916 12.8785C17.9916 15.7066 15.6989 17.9993 12.8708 17.9993V19.9993C16.8035 19.9993 19.9916 16.8112 19.9916 12.8785H17.9916ZM12.8708 7.75771C15.6989 7.75771 17.9916 10.0504 17.9916 12.8785H19.9916C19.9916 8.9458 16.8035 5.75771 12.8708 5.75771V7.75771ZM10.8817 8.15808C11.4919 7.90057 12.1634 7.75771 12.8708 7.75771V5.75771C11.8915 5.75771 10.956 5.95594 10.1041 6.31542L10.8817 8.15808ZM11.1957 6.52536L5.25802 0.659321L3.85242 2.0821L9.79013 7.94814L11.1957 6.52536ZM4.64411 0.374667L1.16885 0.0645059L0.991061 2.05659L4.46632 2.36675L4.64411 0.374667ZM0.0829416 1.13776L0.367277 4.80916L2.36131 4.65473L2.07697 0.983332L0.0829416 1.13776ZM1.25988 5.72648L3.42335 5.9536L3.63216 3.96454L1.4687 3.73741L1.25988 5.72648ZM2.52776 4.95907L2.52776 6.89541H4.52776L4.52776 4.95907L2.52776 4.95907ZM3.4246 7.89008L5.40678 8.09565L5.61309 6.10632L3.63091 5.90075L3.4246 7.89008ZM4.51152 7.15725L4.61762 9.03995L6.61445 8.92743L6.50835 7.04472L4.51152 7.15725ZM4.89965 9.6814L6.47236 11.2962L7.90512 9.90077L6.33241 8.28598L4.89965 9.6814Z" fill="#808587"/>
</svg>
