<svg width="24" height="24" viewBox="0 0 24 24" fill="none" xmlns="http://www.w3.org/2000/svg">
<path d="M12.121 4C15.6046 4 18.2876 7.0737 17.8169 10.5253C17.6712 11.594 17.2278 12.6002 16.5372 13.4288L11.998 18.8759L7.45875 13.4288C6.76825 12.6002 6.32479 11.594 6.17905 10.5253C5.70837 7.0737 8.39138 4 11.875 4H12.121ZM11.875 2C7.17941 2 3.56296 6.14306 4.19739 10.7956C4.39383 12.2361 4.99157 13.5923 5.92231 14.7092L11.6666 21.6023C11.8391 21.8093 12.1569 21.8093 12.3294 21.6023L18.0737 14.7092C19.0044 13.5923 19.6022 12.2361 19.7986 10.7956C20.433 6.14306 16.8166 2 12.121 2H11.875Z" fill="#A2A7AA"/>
<path d="M10.498 9.74306C10.498 8.91463 11.1696 8.24306 11.998 8.24306C12.8264 8.24306 13.498 8.91463 13.498 9.74306C13.498 10.5715 12.8264 11.2431 11.998 11.2431C11.1696 11.2431 10.498 10.5715 10.498 9.74306Z" fill="#A2A7AA"/>
</svg>
