<svg width="20" height="20" viewBox="0 0 20 20" fill="none" xmlns="http://www.w3.org/2000/svg">
<path d="M13.0227 7.91828C13.0939 8.41419 12.776 8.78327 12.3704 8.78327C11.9647 8.78327 11.6432 8.45122 11.5629 8.05361C11.4523 7.50662 11.2183 6.98861 10.8747 6.54082C10.531 6.09302 10.0913 5.73285 9.59153 5.4845C9.22826 5.30397 8.99073 4.90751 9.09573 4.51568C9.20072 4.12384 9.62255 3.91163 10.0584 4.09814C10.8675 4.44437 11.4994 4.94189 12.0401 5.64654C12.5808 6.35119 12.8976 7.04717 13.0227 7.91828Z" fill="white"/>
<path d="M8.50563 0C3.8081 0 0 3.8081 0 8.50563C0 13.2032 3.8081 17.0113 8.50563 17.0113C10.0623 17.0113 11.5213 16.5931 12.7764 15.863C13.0281 15.9517 13.2988 15.9999 13.5809 15.9999C13.8803 15.9999 14.1671 15.9455 14.4318 15.846L18.2929 19.7071C18.6834 20.0976 19.3166 20.0976 19.7071 19.7071C20.0976 19.3166 20.0976 18.6834 19.7071 18.2929L15.8461 14.4318C15.9456 14.1671 16 13.8803 16 13.5808C16 13.2988 15.9517 13.028 15.863 12.7763C16.5931 11.5212 17.0113 10.0623 17.0113 8.50563C17.0113 3.8081 13.2032 0 8.50563 0ZM2 8.50563C2 4.91267 4.91267 2 8.50563 2C12.0986 2 15.0113 4.91267 15.0113 8.50563C15.0113 12.0986 12.0986 15.0113 8.50563 15.0113C4.91267 15.0113 2 12.0986 2 8.50563Z" fill="white"/>
</svg>
